#Wavefront OBJ file, generated by BrawlCrate v0.10.0.0

#Vertices
v 0.7776041 -1.276112 0.03232708
v -0.6684603 -4.047103 0.03232708
v -0.8107746 -3.812308 0.03232708
v -4.571921 -4.0471 0.03232708
v 0.5908526 2.242411 0.03232708
v -3.271732 2.242411 0.03232708
v -3.40657 2.477206 0.03232708
v -5.165684 -0.5374554 0.03232708
v -4.930888 -2.987687 0.03232708
v -4.930888 -0.6009499 0.03232708
v 0.5435941 -1.217026 0.03232708
v -4.438634 -3.812304 0.03232708
v -5.165684 -3.052437 0.03232708
v 0.8288777 2.477206 0.03232708

#Normals
vn 0 0 1.000003
vn 0 0 1.000003
vn 0 0 1.000003
vn 0 0 1.000003
vn 0 0 1.000003
vn 0 0 1.000003
vn 0 0 1.000003
vn 0 0 1.000003
vn 0 0 1.000003
vn 0 0 1.000003
vn 0 0 1.000003
vn 0 0 1.000003
vn 0 0 1.000003
vn 0 0 1.000003
vn 0 0 1.000003
vn 0 0 1.000003
vn 0 0 1.000003
vn 0 0 1.000003
vn 0 0 1.000003
vn 0 0 1.000003
vn 0 0 1.000003
vn 0 0 1.000003
vn 0 0 1.000003
vn 0 0 1.000003
vn 0 0 1.000003
vn 0 0 1.000003
vn 0 0 1.000003
vn 0 0 1.000003
vn 0 0 1.000003
vn 0 0 1.000003
vn 0 0 1.000003

#UVs
vt 0.989481 0.425264000892639
vt 0.749216 0.00199997425079346
vt 0.725571 0.0378649830818176
vt 0.100654 0.00199997425079346
vt 0.958452 0.962710976600647
vt 0.316681 0.962710976600647
vt 0.294278 0.99857497215271
vt 0.002 0.538092017173767
vt 0.041011 0.163824021816254
vt 0.041011 0.528392970561981
vt 0.725571 0.0378649830818176
vt 0.9506 0.43428897857666
vt 0.989481 0.425264000892639
vt 0.041011 0.163824021816254
vt 0.725571 0.0378649830818176
vt 0.1228 0.0378649830818176
vt 0.100654 0.00199997425079346
vt 0.002 0.153932988643646
vt 0.1228 0.0378649830818176
vt 0.002 0.153932988643646
vt 0.041011 0.163824021816254
vt 0.002 0.538092017173767
vt 0.041011 0.528392970561981
vt 0.316681 0.962710976600647
vt 0.9506 0.43428897857666
vt 0.958452 0.962710976600647
vt 0.989481 0.425264000892639
vt 0.998 0.998575985431671
vt 0.998 0.998575985431671
vt 0.958452 0.962710976600647
vt 0.294278 0.99857497215271

g polygon2
usemtl Character_Face_Mat

#Trilist
f 3/3/3 2/2/2 1/1/1
f 4/4/4 2/2/2 3/3/3
f 7/7/7 6/6/6 5/5/5
f 8/8/8 6/6/6 7/7/7
f 3/11/11 10/10/10 9/9/9
f 11/12/12 10/10/10 3/11/11
f 1/13/13 11/12/12 3/11/11
f 12/16/16 3/15/15 9/14/14
f 4/17/17 3/15/15 12/16/16
f 13/18/18 4/17/17 12/16/16
f 9/21/21 13/20/20 12/19/19
f 8/22/22 13/20/20 9/21/21
f 10/23/23 8/22/22 9/21/21
f 6/24/24 8/22/22 10/23/23
f 11/25/25 6/24/24 10/23/23
f 5/26/26 6/24/24 11/25/25
f 1/27/27 5/26/26 11/25/25
f 14/28/28 5/26/26 1/27/27
f 7/31/31 5/30/30 14/29/29
